HIERARCHY
ROOT Hips
{
	OFFSET 0.000000 0.000000 0.000000
	CHANNELS 6 Xposition Yposition Zposition Xrotation Yrotation Zrotation
	JOINT LeftUpLeg_virtual
	{
		OFFSET 0.000000 0.000000 0.000000
		CHANNELS 3 Xrotation Yrotation Zrotation
		JOINT LeftUpLeg
		{
			OFFSET 15.427100 -6.655098 0.678600
			CHANNELS 3 Xrotation Yrotation Zrotation
			JOINT LeftLeg
			{
				OFFSET 4.081073 -39.591068 13.024000
				CHANNELS 3 Xrotation Yrotation Zrotation
				JOINT LeftFoot
				{
					OFFSET -4.081074 -37.707932 -15.979700
					CHANNELS 3 Xrotation Yrotation Zrotation
					JOINT LeftToeBase
					{
						OFFSET 5.346399 -15.068900 20.645000
						CHANNELS 3 Xrotation Yrotation Zrotation
						JOINT LeftToe_End
						{
							OFFSET 2.754700 0.931300 11.300900
							CHANNELS 3 Xrotation Yrotation Zrotation
							End Site
							{
								OFFSET 0 0 0
							}
						}
					}
				}
			}
		}
	}
	JOINT RightUpLeg_virtual
	{
		OFFSET 0.000000 0.000000 0.000000
		CHANNELS 3 Xrotation Yrotation Zrotation
		JOINT RightUpLeg
		{
			OFFSET -15.569500 -6.655098 0.678600
			CHANNELS 3 Xrotation Yrotation Zrotation
			JOINT RightLeg
			{
				OFFSET -4.081825 -39.591045 13.023800
				CHANNELS 3 Xrotation Yrotation Zrotation
				JOINT RightFoot
				{
					OFFSET 4.081824 -37.707954 -15.979600
					CHANNELS 3 Xrotation Yrotation Zrotation
					JOINT RightToeBase
					{
						OFFSET -5.346400 -15.068900 20.645000
						CHANNELS 3 Xrotation Yrotation Zrotation
						JOINT RightToe_End
						{
							OFFSET -2.754700 0.931300 11.300900
							CHANNELS 3 Xrotation Yrotation Zrotation
							End Site
							{
								OFFSET 0 0 0
							}
						}
					}
				}
			}
		}
	}
	JOINT Spine_virtual
	{
		OFFSET 0.000000 0.000000 0.000000
		CHANNELS 3 Xrotation Yrotation Zrotation
		JOINT Spine
		{
			OFFSET -0.279200 12.230698 -2.892100
			CHANNELS 3 Xrotation Yrotation Zrotation
			JOINT Spine1
			{
				OFFSET -0.232667 10.192268 -1.242267
				CHANNELS 3 Xrotation Yrotation Zrotation
				JOINT Spine1_split
				{
					OFFSET -0.232667 10.192268 -1.242267
					CHANNELS 3 Xrotation Yrotation Zrotation
					JOINT Spine2
					{
						OFFSET -0.232667 10.192268 -1.242267
						CHANNELS 3 Xrotation Yrotation Zrotation
						JOINT Neck_virtual
						{
							OFFSET 0.000000 0.000000 0.000000
							CHANNELS 3 Xrotation Yrotation Zrotation
							JOINT Neck
							{
								OFFSET -0.418800 17.814194 8.416900
								CHANNELS 3 Xrotation Yrotation Zrotation
								JOINT Head
								{
									OFFSET 0.000000 7.031097 3.806800
									CHANNELS 3 Xrotation Yrotation Zrotation
									JOINT HeadTop_End
									{
										OFFSET 0.000000 24.646606 12.978600
										CHANNELS 3 Xrotation Yrotation Zrotation
										End Site
										{
											OFFSET 0 0 0
										}
									}
								}
							}
						}
						JOINT LeftShoulder_virtual
						{
							OFFSET 0.000000 0.000000 0.000000
							CHANNELS 3 Xrotation Yrotation Zrotation
							JOINT LeftShoulder
							{
								OFFSET 8.476499 7.247704 -3.868750
								CHANNELS 3 Xrotation Yrotation Zrotation
								JOINT LeftShoulder_split
								{
									OFFSET 8.476499 7.247704 -3.868750
									CHANNELS 3 Xrotation Yrotation Zrotation
									JOINT LeftArm
									{
										OFFSET 9.308998 -2.777710 0.208600
										CHANNELS 3 Xrotation Yrotation Zrotation
										JOINT LeftForeArm
										{
											OFFSET 29.972298 0.000000 0.000000
											CHANNELS 3 Xrotation Yrotation Zrotation
											JOINT LeftHand
											{
												OFFSET 26.026505 0.000000 0.000000
												CHANNELS 3 Xrotation Yrotation Zrotation
												End Site
												{
													OFFSET 0 0 0
												}
											}
										}
									}
								}
							}
						}
						JOINT RightShoulder_virtual
						{
							OFFSET 0.000000 0.000000 0.000000
							CHANNELS 3 Xrotation Yrotation Zrotation
							JOINT RightShoulder
							{
								OFFSET -7.570500 7.247704 -3.868750
								CHANNELS 3 Xrotation Yrotation Zrotation
								JOINT RightShoulder_split
								{
									OFFSET -7.570500 7.247704 -3.868750
									CHANNELS 3 Xrotation Yrotation Zrotation
									JOINT RightArm
									{
										OFFSET -9.308998 -2.777710 0.208500
										CHANNELS 3 Xrotation Yrotation Zrotation
										JOINT RightForeArm
										{
											OFFSET -29.972300 0.000000 0.000000
											CHANNELS 3 Xrotation Yrotation Zrotation
											JOINT RightHand
											{
												OFFSET -26.026505 0.000000 0.000000
												CHANNELS 3 Xrotation Yrotation Zrotation
												End Site
												{
													OFFSET 0 0 0
												}
											}
										}
									}
								}
							}
						}
					}
				}
			}
		}
	}
}
MOTION
Frames: 11
Frame Time: 0.03333333
-1.110458 82.645332 6.903309 0.000000 0.000000 0.000000 33.463439 -3.599586 -9.145922 -63.588884 5.232785 3.995556 67.292383 -9.234966 0.774161 -0.229752 5.045866 8.147291 -4.960069 0.644200 2.082022 0.000000 0.000000 0.000000 30.034483 -6.434964 -8.108096 -32.465061 -13.509283 11.475601 37.858304 0.985770 -0.225232 -25.509196 -3.751825 13.658476 -15.865180 -1.797026 1.187466 0.000000 0.000000 0.000000 32.789512 -4.799270 -9.089749 3.655406 4.730420 2.871302 -0.823932 1.415578 -0.328361 0.547868 1.307024 -0.083188 0.000000 0.000000 0.000000 -0.072096 1.342597 -0.207583 -11.557924 0.777758 2.728000 -11.294940 3.741891 -3.954531 0.000000 0.000000 0.000000 -1.019894 1.617621 -0.330000 1.329789 0.965807 -20.521365 2.551494 -2.580925 -0.154278 18.669426 -2.798934 -42.221641 3.855299 -69.223496 1.767488 0.000000 0.000000 0.000000 -0.242167 1.239350 -0.802862 1.355765 4.883512 18.572982 1.444641 1.966022 -2.885479 8.391962 -10.312647 50.799887 -0.116013 67.038020 1.850003 0.000000 0.000000 0.000000 
-1.545137 82.379936 8.965759 0.000000 0.000000 0.000000 32.315039 -5.037365 -8.495114 -65.955387 5.727461 4.376584 64.116311 -8.712134 0.416017 0.014642 4.543553 7.538017 -4.599998 0.554977 2.693635 0.000000 0.000000 0.000000 30.622159 -7.466676 -7.709405 -30.706440 -13.102232 11.204310 39.018900 0.455505 0.119890 -26.151609 -5.154447 14.638969 -16.926334 -1.739470 1.025652 0.000000 0.000000 0.000000 32.159464 -4.209668 -9.307718 4.201153 5.011760 2.659873 -0.814439 1.571338 -0.307792 0.440282 2.353405 -0.066805 0.000000 0.000000 0.000000 -0.160260 1.444687 -0.282062 -11.729833 0.472997 2.821645 -11.495645 3.442787 -3.723999 0.000000 0.000000 0.000000 -0.980153 1.768101 -0.346809 1.318569 0.739379 -20.109762 2.155240 -2.152988 -0.388320 18.257504 -2.923778 -42.729370 3.866665 -69.414325 1.938631 0.000000 0.000000 0.000000 -0.255780 1.383245 -0.913146 1.408314 4.952838 18.358871 1.890557 2.054315 -2.987264 8.285425 -9.908264 50.597362 -0.183156 68.405820 1.792128 0.000000 0.000000 0.000000 
-2.469316 82.124542 12.276482 0.000000 0.000000 0.000000 31.150741 -6.213815 -7.710725 -69.218250 6.444742 4.467024 60.516883 -8.121797 0.159185 -0.328985 4.651920 7.554086 -4.150846 0.528846 2.349322 0.000000 0.000000 0.000000 31.095345 -7.167787 -7.687328 -26.218714 -12.698126 11.666123 39.324148 -1.578320 0.503819 -30.342357 -7.179634 11.284506 -14.275959 -1.277712 0.411718 0.000000 0.000000 0.000000 30.924989 -3.959519 -9.031524 4.911957 5.441916 2.020716 -0.704950 1.857738 -0.364468 0.569515 3.067409 0.107775 0.000000 0.000000 0.000000 -0.230575 1.666808 -0.425095 -12.057234 0.183949 2.737817 -11.890407 2.874257 -3.268478 0.000000 0.000000 0.000000 -0.886673 2.016784 -0.441909 1.319705 0.609800 -19.460290 1.803509 -1.726814 -0.703470 17.829039 -3.245072 -43.545038 4.074945 -69.612250 2.381672 0.000000 0.000000 0.000000 -0.245379 1.662931 -1.066343 1.503178 5.095550 17.809658 2.347662 2.038824 -2.846703 9.022484 -9.690663 50.598878 -0.397181 70.668211 1.819146 0.000000 0.000000 0.000000 
-3.811474 81.737534 16.358250 0.000000 0.000000 0.000000 30.149538 -6.699761 -6.832323 -72.400838 7.446137 3.958081 56.724533 -7.195927 0.023224 -1.232877 5.518605 8.447770 -3.488563 0.543042 1.245275 0.000000 0.000000 0.000000 31.208955 -6.383208 -7.554151 -20.552277 -12.399519 12.211725 37.912990 -4.232576 0.790868 -35.380581 -8.306552 5.589960 -11.419842 -0.495063 -0.519345 0.000000 0.000000 0.000000 29.612780 -3.986759 -8.334283 5.695858 5.894244 0.932666 -0.549512 2.164163 -0.425282 0.754945 2.844414 0.201392 0.000000 0.000000 0.000000 -0.281903 1.969354 -0.564727 -12.449942 -0.045788 2.542580 -12.386348 2.233832 -2.690161 0.000000 0.000000 0.000000 -0.764478 2.304698 -0.538219 1.338703 0.570753 -18.671422 1.636004 -1.315916 -0.940260 17.396774 -3.546197 -44.685556 4.353684 -69.854237 2.947205 0.000000 0.000000 0.000000 -0.217609 1.989389 -1.191746 1.617026 5.263193 17.088969 2.644048 2.060445 -2.539712 10.537674 -9.755534 50.985317 -0.660079 73.367542 1.860431 0.000000 0.000000 0.000000 
-5.207155 81.315201 21.228683 0.000000 0.000000 0.000000 29.539796 -6.650512 -5.963704 -74.970240 8.791002 3.077293 52.667216 -5.891704 -0.110424 -2.218547 6.796661 9.970076 -2.755264 0.500039 -0.041324 0.000000 0.000000 0.000000 31.211803 -5.714313 -7.018948 -15.009482 -12.156218 12.225570 35.041398 -5.547600 0.722034 -37.029147 -7.662298 1.893482 -14.321177 0.504570 -1.570819 0.000000 0.000000 0.000000 28.630172 -4.084669 -7.326845 6.406541 6.248981 -0.525240 -0.390074 2.435643 -0.441939 1.059555 2.086479 0.277568 0.000000 0.000000 0.000000 -0.331653 2.303169 -0.648188 -12.821814 -0.204399 2.332214 -12.839031 1.749567 -2.095593 0.000000 0.000000 0.000000 -0.664792 2.594824 -0.597907 1.359875 0.605852 -17.889884 1.593647 -0.934761 -1.161133 16.924130 -3.633810 -46.092879 4.546754 -70.230723 3.444965 0.000000 0.000000 0.000000 -0.206128 2.310434 -1.224561 1.740830 5.419960 16.413652 2.521138 2.382113 -2.217544 12.497282 -10.138703 51.799902 -0.856676 76.011468 1.844752 0.000000 0.000000 0.000000 
-6.616531 80.787468 26.529755 0.000000 0.000000 0.000000 29.501339 -6.310622 -5.109610 -76.487354 10.312792 2.214059 48.296636 -4.691929 -0.461809 -2.663096 7.900837 11.717551 -3.088191 0.318219 -0.648449 0.000000 0.000000 0.000000 31.254806 -5.249018 -6.215207 -10.428089 -11.937239 11.347517 32.058845 -4.588732 0.513380 -32.366098 -5.532259 2.694202 -24.307460 1.577460 -2.298251 0.000000 0.000000 0.000000 28.287182 -4.301160 -6.208502 7.015049 6.414748 -2.212190 -0.255682 2.653405 -0.408288 1.302044 1.027327 0.400846 0.000000 0.000000 0.000000 -0.391830 2.644065 -0.665142 -13.086953 -0.262543 2.178584 -13.047747 1.647204 -1.552382 0.000000 0.000000 0.000000 -0.609475 2.864952 -0.613646 1.376852 0.678841 -17.253468 1.527265 -0.573586 -1.295681 16.406635 -3.362710 -47.577271 4.555549 -70.735850 3.731448 0.000000 0.000000 0.000000 -0.244414 2.616606 -1.156445 1.845325 5.457749 15.950531 2.030998 2.912317 -1.921177 14.511471 -10.792091 53.018923 -0.835422 78.229216 1.628254 0.000000 0.000000 0.000000 
-7.896718 80.254044 32.027473 0.000000 0.000000 0.000000 29.667558 -6.066513 -4.409294 -77.067183 11.733217 1.823848 44.159120 -3.749463 -1.260820 -2.280249 8.466202 13.374973 -4.368032 0.058753 -0.263541 0.000000 0.000000 0.000000 31.042882 -5.163649 -5.314620 -7.330466 -11.965904 9.756007 30.303005 -2.272083 0.405804 -21.904437 -2.239321 6.791348 -36.213434 2.280351 -2.338181 0.000000 0.000000 0.000000 28.283870 -4.481726 -5.181475 7.518041 6.422563 -3.840882 -0.194180 2.866592 -0.346373 1.339345 0.147106 0.348703 0.000000 0.000000 0.000000 -0.461384 2.974033 -0.666169 -13.261342 -0.240284 2.100593 -12.875002 1.862528 -1.112197 0.000000 0.000000 0.000000 -0.635849 3.132087 -0.622528 1.371315 0.691741 -16.854774 1.458094 -0.373891 -1.357149 15.920795 -2.768257 -48.958359 4.201516 -71.212509 3.617840 0.000000 0.000000 0.000000 -0.349091 2.911112 -1.039738 1.905548 5.292828 15.750939 1.359568 3.557137 -1.687153 16.175309 -11.626078 54.393161 -0.476404 79.871167 1.116218 0.000000 0.000000 0.000000 
-8.830568 79.523613 37.275288 0.000000 0.000000 0.000000 29.600677 -6.141476 -4.009504 -76.848931 12.518181 2.268033 41.235915 -3.007999 -2.594927 -0.996950 8.635430 15.029958 -5.463368 -0.241959 0.794933 0.000000 0.000000 0.000000 30.615920 -5.246840 -4.619880 -6.144462 -12.485957 7.577456 31.136954 -0.014224 0.705852 -9.160838 1.924309 10.908750 -43.908001 2.236752 -1.833826 0.000000 0.000000 0.000000 28.269400 -4.666247 -4.370780 7.895975 6.312253 -5.160348 -0.181590 3.109991 -0.337950 1.210952 -0.210668 0.390481 0.000000 0.000000 0.000000 -0.522341 3.282933 -0.716680 -13.357897 -0.139026 2.067001 -12.322241 2.252371 -0.832284 0.000000 0.000000 0.000000 -0.736157 3.392850 -0.673899 1.339759 0.598633 -16.731750 1.365391 -0.470337 -1.397170 15.573519 -2.060492 -49.994526 3.517831 -71.454488 3.116801 0.000000 0.000000 0.000000 -0.485338 3.203070 -0.937499 1.934178 4.928998 15.782072 0.787872 4.173474 -1.476131 17.230365 -12.455505 55.515894 0.202682 80.914225 0.343659 0.000000 0.000000 0.000000 
-9.409022 78.527512 42.177387 0.000000 0.000000 0.000000 29.083543 -6.342745 -3.793945 -75.790928 12.361299 3.148325 40.522368 -2.517298 -4.157117 0.220830 8.701752 16.785219 -5.613303 -0.492024 2.120262 0.000000 0.000000 0.000000 30.011021 -4.960425 -4.404789 -7.489876 -13.408992 4.690381 34.739599 1.101313 1.395803 2.384906 5.441137 12.793295 -44.934117 1.683989 -1.194756 0.000000 0.000000 0.000000 27.906343 -4.641957 -3.777651 8.182904 6.072060 -6.058418 -0.202143 3.349442 -0.412314 1.060748 -0.331131 0.461681 0.000000 0.000000 0.000000 -0.568008 3.535325 -0.838774 -13.374821 0.007259 2.017966 -11.531813 2.730272 -0.750376 0.000000 0.000000 0.000000 -0.879237 3.610193 -0.768972 1.286306 0.409099 -16.819686 1.188922 -0.771035 -1.350753 15.475750 -1.449613 -50.525450 2.759252 -71.364453 2.448673 0.000000 0.000000 0.000000 -0.610661 3.465057 -0.883200 1.927562 4.473427 15.953162 0.647854 4.569028 -1.422254 17.502694 -13.137823 56.123828 0.924981 81.302132 -0.417011 0.000000 0.000000 0.000000 
-9.745121 77.633316 46.711346 0.000000 0.000000 0.000000 28.082548 -5.958283 -3.803057 -73.523749 11.480471 3.768128 41.854300 -2.067967 -5.401015 0.131108 8.733091 18.528777 -4.605676 -0.582766 3.378377 0.000000 0.000000 0.000000 29.030046 -4.236535 -4.439114 -11.425774 -14.362187 1.381691 39.965021 0.954890 2.413121 11.392779 6.995027 12.580411 -39.517777 1.260238 -0.767960 0.000000 0.000000 0.000000 27.100971 -4.069629 -3.420380 8.342117 5.665366 -6.510950 -0.236796 3.524460 -0.522868 1.091935 -0.002908 0.372845 0.000000 0.000000 0.000000 -0.604557 3.668206 -0.985429 -13.330165 0.163582 1.944929 -10.682044 3.195587 -0.890416 0.000000 0.000000 0.000000 -1.024841 3.728576 -0.871203 1.213449 0.139903 -17.074308 1.087329 -1.145471 -1.320487 15.558741 -1.141155 -50.536095 2.179613 -70.930244 1.855566 0.000000 0.000000 0.000000 -0.704871 3.628615 -0.861375 1.868942 4.054779 16.225507 0.727592 4.720803 -1.560210 17.075507 -13.528919 56.045472 1.390219 80.888032 -0.878370 0.000000 0.000000 0.000000 
-10.089194 77.129799 51.345123 0.000000 0.000000 0.000000 26.818335 -3.955334 -4.143923 -69.451911 10.145679 3.469402 43.739647 -1.724313 -6.034976 -1.723794 8.545067 19.608488 -3.474860 -0.569149 4.459150 0.000000 0.000000 0.000000 27.874709 -2.828020 -4.599766 -17.780738 -14.437936 -2.237054 45.239922 0.427559 3.574385 17.072430 7.001201 11.695779 -29.700074 1.350944 -0.784986 0.000000 0.000000 0.000000 26.189105 -2.552018 -3.495824 8.397273 5.064293 -6.557196 -0.278821 3.566658 -0.634233 1.131365 0.390342 0.262158 0.000000 0.000000 0.000000 -0.611525 3.649514 -1.084192 -13.235372 0.328972 1.822527 -9.902953 3.602486 -1.196713 0.000000 0.000000 0.000000 -1.108983 3.719337 -0.938054 1.132231 -0.166988 -17.447633 0.921312 -1.364566 -1.345993 15.681909 -1.252673 -50.067086 1.931410 -70.254206 1.482234 0.000000 0.000000 0.000000 -0.758794 3.642925 -0.841055 1.752265 3.778800 16.602578 0.974187 4.662737 -1.884522 16.146704 -13.551901 55.402540 1.382054 79.585897 -0.862338 0.000000 0.000000 0.000000 
